# Blender v2.79 (sub 0) OBJ File: ''
# www.blender.org
mtllib bullet.mtl
o Sphere
v -0.204401 0.885148 -0.530755
v 0.303123 -0.099021 -0.989106
v 0.535892 0.509071 -0.745914
v 0.365776 -0.587846 -0.796820
v 0.920339 0.090717 -0.481215
v 0.309862 0.943318 -0.282181
v 0.994283 -0.325682 -0.007848
v 0.896644 0.536957 0.154152
v 0.381094 -0.957124 -0.247577
v 0.758648 -0.455126 0.554121
v 0.543800 0.239745 0.869746
v 0.330811 0.868611 0.444585
v 0.073739 -1.024805 0.154873
v 0.075435 0.206945 1.022576
v 0.114305 -0.658113 0.793022
v -0.410482 -0.311945 0.895952
v -0.188929 0.987324 0.243577
v -0.597401 0.583613 0.679407
v -0.967598 -0.188229 0.397977
v -0.597196 -0.785468 0.362565
v -0.768860 0.643993 -0.294522
v -0.976248 -0.030688 -0.390646
v -0.321139 0.152368 -0.975815
v -0.532548 -0.722228 -0.589639
vn 0.0142 0.5174 -0.8556
vn -0.0493 0.9903 -0.1297
vn 0.2095 0.7626 -0.6120
vn 0.6197 0.0752 -0.7812
vn 0.7750 -0.4095 -0.4813
vn 0.6823 0.6693 -0.2942
vn 0.6880 -0.7151 0.1238
vn 0.5221 -0.8115 0.2623
vn 0.9193 0.0303 0.3924
vn 0.8844 0.0634 0.4624
vn 0.4083 -0.2698 0.8720
vn 0.2112 0.5955 0.7751
vn 0.0210 -0.2555 0.9666
vn -0.3867 0.1397 0.9116
vn -0.2994 -0.6591 0.6899
vn -0.9318 0.3363 0.1368
vn -0.8500 -0.5183 -0.0942
vn -0.8486 -0.5209 -0.0922
vn 0.1134 0.3312 -0.9367
vn 0.6585 -0.2009 -0.7252
vn 0.7294 -0.5581 -0.3956
vn 0.7898 0.5154 -0.3325
vn 0.9914 0.1213 -0.0482
vn 0.5314 0.8441 0.0714
vn 0.1865 0.9778 0.0951
vn 0.6143 0.5741 0.5413
vn 0.4131 -0.8007 0.4338
vn 0.3164 -0.2300 0.9203
vn -0.0130 0.6607 0.7506
vn -0.0729 0.7648 0.6401
vn -0.1496 -0.8531 0.4997
vn -0.6507 -0.4403 0.6186
vn -0.6604 0.0434 0.7496
vn -0.6058 0.7803 0.1550
vn -0.1609 -0.3706 -0.9148
vn -0.3583 -0.9296 -0.0861
vn -0.4290 0.8966 -0.1097
vn -0.6259 -0.1834 -0.7581
vn -0.5078 0.5049 -0.6980
vn -0.6805 0.3042 -0.6667
vn -0.0045 -0.8299 -0.5579
vn -0.1437 -0.9521 -0.2699
usemtl None
s off
f 1//1 3//1 23//1
f 1//2 17//2 6//2
f 6//3 3//3 1//3
f 2//4 3//4 5//4
f 5//5 7//5 4//5
f 6//6 8//6 3//6
f 7//7 10//7 9//7
f 9//8 10//8 13//8
f 8//9 10//9 7//9
f 8//10 11//10 10//10
f 11//11 15//11 10//11
f 12//12 14//12 11//12
f 14//13 16//13 15//13
f 18//14 16//14 14//14
f 16//15 20//15 15//15
f 21//16 22//16 19//16 18//16
f 19//17 22//17 24//17
f 19//18 24//18 20//18
f 23//19 3//19 2//19
f 2//20 5//20 4//20
f 9//21 4//21 7//21
f 3//22 8//22 5//22
f 5//23 8//23 7//23
f 6//24 12//24 8//24
f 6//25 17//25 12//25
f 8//26 12//26 11//26
f 13//27 10//27 15//27
f 11//28 14//28 15//28
f 12//29 18//29 14//29
f 18//30 12//30 17//30
f 13//31 15//31 20//31
f 16//32 19//32 20//32
f 16//33 18//33 19//33
f 18//34 17//34 21//34
f 4//35 24//35 23//35 2//35
f 20//36 24//36 13//36
f 17//37 1//37 21//37
f 22//38 23//38 24//38
f 21//39 1//39 23//39
f 22//40 21//40 23//40
f 24//41 4//41 9//41
f 13//42 24//42 9//42
