# 3ds Max Wavefront OBJ Exporter v0.97b - (c)2007 guruware
# File Created: 08.09.2018 21:38:37

mtllib frontTable.mtl

#
# object tableTop
#

v  -25.0000 24.5338 15.0000
v  -27.7394 24.5338 7.5000
v  -7.6773 24.5338 2.3350
v  -12.5000 24.5338 12.5246
v  0.0000 24.5338 1.7888
v  0.0000 24.5338 11.6353
v  7.6773 24.5338 2.3350
v  12.5000 24.5338 12.5246
v  28.5168 24.5338 7.5000
v  25.0000 24.5338 15.0000
v  -27.7394 24.5338 0.0000
v  -7.6773 24.5338 -2.2714
v  7.6773 24.5338 -2.2714
v  28.5168 24.5338 0.0000
v  -27.7394 24.5338 -4.8198
v  -7.6773 24.5338 -5.3574
v  7.6773 24.5338 -5.3574
v  28.5168 24.5338 -7.5000
v  -25.0000 26.7133 15.0000
v  -12.5000 26.7133 12.5246
v  -12.5000 26.7133 5.0246
v  -27.7394 26.7133 7.5000
v  0.0000 26.7133 11.6353
v  0.0000 26.7133 4.1353
v  12.5000 26.7133 12.5246
v  12.5000 26.7133 5.0246
v  25.0000 26.7133 15.0000
v  28.5168 26.7133 7.5000
v  -12.5000 26.7133 -2.4754
v  -27.7394 26.7133 0.0000
v  0.0000 26.7133 -3.3647
v  12.5000 26.7133 -2.4754
v  28.5168 26.7133 0.0000
v  -12.5000 26.7133 -7.5000
v  -27.7394 26.7133 -4.8198
v  0.0000 26.7133 -8.3893
v  12.5000 26.7133 -7.5000
v  28.5168 26.7133 -7.5000
v  -12.5000 26.7133 -16.4512
v  -25.0000 26.7133 -12.3198
v  0.0000 26.7133 -16.4512
v  12.5000 26.7133 -16.4512
v  25.0000 26.7133 -13.2000
v  25.0000 24.5338 -13.2000
v  12.5000 24.5338 -16.4512
v  -12.5000 24.5338 -16.4512
v  -25.0000 24.5338 -12.3198
# 47 vertices

vn 0.0000 -1.0000 -0.0000
vn 0.0000 1.0000 -0.0000
vn -0.0000 1.0000 -0.0000
vn 0.0000 1.0000 0.0000
vn 0.1943 -0.0000 0.9810
vn 0.1329 -0.0000 0.9911
vn -0.0000 -0.0000 1.0000
vn 0.0000 -0.0000 1.0000
vn -0.1329 -0.0000 0.9911
vn -0.1943 -0.0000 0.9810
vn 0.9054 -0.0000 0.4245
vn 0.9761 -0.0000 0.2175
vn 1.0000 0.0000 -0.0000
vn 0.9620 0.0000 -0.2729
vn 0.8511 0.0000 -0.5251
vn 0.2517 0.0000 -0.9678
vn -0.3138 0.0000 -0.9495
vn -0.9393 0.0000 -0.3431
vn -0.9847 -0.0000 -0.1742
vn -1.0000 0.0000 -0.0000
vn -0.9847 -0.0000 0.1742
vn -0.9393 -0.0000 0.3431
# 22 vertex normals

vt 1.0000 0.0000 0.0000
vt 1.0000 0.2500 0.0000
vt 0.7500 0.2500 0.0000
vt 0.7500 0.0000 0.0000
vt 0.5000 0.2500 0.0000
vt 0.5000 0.0000 0.0000
vt 0.2500 0.2500 0.0000
vt 0.2500 0.0000 0.0000
vt 0.0000 0.2500 0.0000
vt 0.0000 0.0000 0.0000
vt 1.0000 0.5000 0.0000
vt 0.7500 0.5000 0.0000
vt 0.2500 0.5000 0.0000
vt 0.0000 0.5000 0.0000
vt 1.0000 0.7500 0.0000
vt 0.7500 0.7500 0.0000
vt 0.2500 0.7500 0.0000
vt 0.0000 0.7500 0.0000
vt 0.5000 0.5000 0.0000
vt 0.5000 0.7500 0.0000
vt 0.2500 1.0000 0.0000
vt 0.0000 1.0000 0.0000
vt 0.5000 1.0000 0.0000
vt 0.7500 1.0000 0.0000
vt 1.0000 1.0000 0.0000
# 25 texture coords

g tableTop
usemtl please
s 2
f 1/1/1 2/2/1 3/3/1 
f 3/3/1 4/4/1 1/1/1 
f 4/4/1 3/3/1 5/5/1 
f 5/5/1 6/6/1 4/4/1 
f 6/6/1 5/5/1 7/7/1 
f 7/7/1 8/8/1 6/6/1 
f 8/8/1 7/7/1 9/9/1 
f 9/9/1 10/10/1 8/8/1 
f 2/2/1 11/11/1 12/12/1 
f 12/12/1 3/3/1 2/2/1 
f 7/7/1 13/13/1 14/14/1 
f 14/14/1 9/9/1 7/7/1 
f 11/11/1 15/15/1 16/16/1 
f 16/16/1 12/12/1 11/11/1 
f 13/13/1 17/17/1 18/18/1 
f 18/18/1 14/14/1 13/13/1 
s 4
f 19/10/2 20/8/2 21/7/2 
f 21/7/2 22/9/2 19/10/2 
f 20/8/2 23/6/2 24/5/2 
f 24/5/2 21/7/2 20/8/2 
f 23/6/2 25/4/2 26/3/2 
f 26/3/2 24/5/2 23/6/2 
f 25/4/2 27/1/2 28/2/2 
f 28/2/2 26/3/2 25/4/2 
f 22/9/2 21/7/2 29/13/2 
f 29/13/2 30/14/2 22/9/2 
f 21/7/2 24/5/2 31/19/2 
f 31/19/2 29/13/2 21/7/2 
f 24/5/2 26/3/2 32/12/2 
f 32/12/2 31/19/2 24/5/2 
f 26/3/2 28/2/2 33/11/2 
f 33/11/2 32/12/2 26/3/2 
f 30/14/2 29/13/2 34/17/3 
f 34/17/3 35/18/2 30/14/2 
f 29/13/2 31/19/2 36/20/3 
f 36/20/3 34/17/3 29/13/2 
f 31/19/2 32/12/2 37/16/3 
f 37/16/3 36/20/3 31/19/2 
f 32/12/2 33/11/2 38/15/2 
f 38/15/2 37/16/3 32/12/2 
f 35/18/2 34/17/3 39/21/2 
f 39/21/2 40/22/4 35/18/2 
f 34/17/3 36/20/3 41/23/3 
f 41/23/3 39/21/2 34/17/3 
f 36/20/3 37/16/3 42/24/3 
f 42/24/3 41/23/3 36/20/3 
f 37/16/3 38/15/2 43/25/3 
f 43/25/3 42/24/3 37/16/3 
s 8
f 1/10/5 4/8/6 20/21/6 
f 20/21/6 19/22/5 1/10/5 
f 4/8/6 6/6/7 23/23/8 
f 23/23/8 20/21/6 4/8/6 
f 6/6/7 8/4/9 25/24/9 
f 25/24/9 23/23/8 6/6/7 
f 8/4/9 10/1/10 27/25/10 
f 27/25/10 25/24/9 8/4/9 
s 16
f 10/10/11 9/8/12 28/21/12 
f 28/21/12 27/22/11 10/10/11 
f 9/8/12 14/6/13 33/23/13 
f 33/23/13 28/21/12 9/8/12 
f 14/6/13 18/4/14 38/24/14 
f 38/24/14 33/23/13 14/6/13 
f 18/4/14 44/1/15 43/25/15 
f 43/25/15 38/24/14 18/4/14 
s 32
f 44/10/16 45/8/16 42/21/16 
f 42/21/16 43/22/16 44/10/16 
f 46/4/17 47/1/17 40/25/17 
f 40/25/17 39/24/17 46/4/17 
s 64
f 47/10/18 15/8/19 35/21/19 
f 35/21/19 40/22/18 47/10/18 
f 15/8/19 11/6/20 30/23/20 
f 30/23/20 35/21/19 15/8/19 
f 11/6/20 2/4/21 22/24/21 
f 22/24/21 30/23/20 11/6/20 
f 2/4/21 1/1/22 19/25/22 
f 19/25/22 22/24/21 2/4/21 
# 76 faces

#
# object tableBase
#

v  -19.4098 0.0835 14.9318
v  -19.4098 0.0835 -2.2714
v  0.0000 0.0835 -2.8176
v  -0.0000 0.0835 13.5509
v  19.4098 0.0835 -2.2714
v  19.4098 0.0835 14.9318
v  -19.4098 0.0835 -16.2849
v  0.0000 0.0835 -17.6658
v  19.4098 0.0835 -16.2849
v  0.0000 24.5338 1.7888
v  -7.6773 24.5338 2.3350
v  -7.6773 4.5338 2.3350
v  0.0000 4.5338 1.7888
v  -7.6773 24.5338 -2.2714
v  -7.6773 4.5338 -2.2714
v  -7.6773 24.5338 -5.3574
v  -7.6773 4.5338 -5.3574
v  0.0000 24.5338 -5.9036
v  0.0000 4.5338 -5.9036
v  7.6773 24.5338 -5.3574
v  7.6773 4.5338 -5.3574
v  7.6773 24.5338 -2.2714
v  7.6773 4.5338 -2.2714
v  7.6773 24.5338 2.3350
v  7.6773 4.5338 2.3350
# 25 vertices

vn 0.0000 -1.0000 -0.0000
vn -0.0000 -1.0000 -0.0000
vn 0.0710 0.0000 0.9975
vn -1.0000 0.0000 -0.0000
vn -0.0710 0.0000 -0.9975
vn 0.0710 0.0000 -0.9975
vn 1.0000 0.0000 -0.0000
vn -0.0710 0.0000 0.9975
vn 0.0252 0.9350 0.3538
vn -0.3547 0.9350 -0.0000
vn -0.3547 0.9350 0.0000
vn -0.0252 0.9350 -0.3538
vn 0.0252 0.9350 -0.3538
vn 0.3547 0.9350 -0.0000
vn 0.3547 0.9350 0.0000
vn -0.0252 0.9350 0.3538
# 16 vertex normals

vt 0.7500 0.2500 0.0000
vt 0.7500 0.5000 0.0000
vt 0.5000 0.5000 0.0000
vt 0.5000 0.2500 0.0000
vt 0.2500 0.5000 0.0000
vt 0.2500 0.2500 0.0000
vt 0.7500 0.7500 0.0000
vt 0.5000 0.7500 0.0000
vt 0.2500 0.7500 0.0000
# 9 texture coords

g tableBase
usemtl 03___Default
s 2
f 48/26/23 49/27/24 50/28/23 
f 50/28/23 51/29/23 48/26/23 
f 51/29/23 50/28/23 52/30/23 
f 52/30/23 53/31/23 51/29/23 
f 49/27/24 54/32/24 55/33/23 
f 55/33/23 50/28/23 49/27/24 
f 50/28/23 55/33/23 56/34/23 
f 56/34/23 52/30/23 50/28/23 
s off
f 57/29/25 58/26/25 59/26/25 
f 59/26/25 60/29/25 57/29/25 
f 58/26/26 61/27/26 62/27/26 
f 62/27/26 59/26/26 58/26/26 
f 61/27/26 63/32/26 64/32/26 
f 64/32/26 62/27/26 61/27/26 
f 63/32/27 65/33/27 66/33/27 
f 66/33/27 64/32/27 63/32/27 
f 65/33/28 67/34/28 68/34/28 
f 68/34/28 66/33/28 65/33/28 
f 67/34/29 69/30/29 70/30/29 
f 70/30/29 68/34/29 67/34/29 
f 69/30/29 71/31/29 72/31/29 
f 72/31/29 70/30/29 69/30/29 
f 71/31/30 57/29/30 60/29/30 
f 60/29/30 72/31/30 71/31/30 
f 60/29/31 59/26/31 48/26/31 
f 48/26/31 51/29/31 60/29/31 
f 59/26/32 62/27/32 49/27/32 
f 49/27/32 48/26/32 59/26/32 
f 62/27/32 64/32/32 54/32/32 
f 54/32/33 49/27/33 62/27/33 
f 64/32/34 66/33/34 55/33/34 
f 55/33/34 54/32/34 64/32/34 
f 66/33/35 68/34/35 56/34/35 
f 56/34/35 55/33/35 66/33/35 
f 68/34/36 70/30/36 52/30/36 
f 52/30/37 56/34/37 68/34/37 
f 70/30/36 72/31/36 53/31/36 
f 53/31/36 52/30/36 70/30/36 
f 72/31/38 60/29/38 51/29/38 
f 51/29/38 53/31/38 72/31/38 
# 40 faces

#
# object Front
#

v  -23.9370 17.1455 -7.5556
v  -22.9640 17.1455 -10.2197
v  -12.0762 17.1455 -13.8183
v  -7.8061 17.1455 -7.9879
v  0.0000 17.1455 -13.8183
v  0.0000 17.1455 -8.5432
v  12.1632 17.1455 -13.8183
v  7.6358 17.1455 -8.0000
v  23.3142 17.1455 -10.9179
v  24.0719 17.1455 -9.6898
v  14.4383 24.0086 -18.2093
v  0.0000 24.0478 -18.2233
v  0.0000 30.3870 -18.2233
v  14.4383 28.1656 -18.2233
v  -14.4383 23.9985 -18.2057
v  -14.4383 28.1656 -18.2233
v  -7.6773 24.5338 -5.3574
v  -27.7394 24.5338 -4.8198
v  -25.0000 24.5338 -12.3198
v  -12.5000 24.5338 -16.4512
v  0.0000 14.8338 -14.9397
v  -13.9125 14.8338 -14.9397
v  14.0200 14.8338 -14.9397
v  12.5000 24.5338 -16.4512
v  25.0000 24.5338 -13.2000
v  28.5168 24.5338 -7.5000
v  7.6773 24.5338 -5.3574
v  0.0000 24.5338 -5.9036
v  -12.5000 26.7133 -16.4512
v  0.0000 26.7133 -16.4512
v  12.5000 26.7133 -16.4512
# 31 vertices

vn 0.0000 -1.0000 -0.0000
vn -0.0001 -0.0025 -1.0000
vn 0.0004 -0.0004 -1.0000
vn 0.0003 -0.0003 -1.0000
vn -0.0005 -0.0034 -1.0000
vn -0.0012 -0.0042 -1.0000
vn -0.0009 -0.0032 -1.0000
vn 0.0252 -0.3357 0.9416
vn -0.8848 -0.3357 -0.3232
vn -0.2956 -0.3357 -0.8944
vn -0.0000 -0.3357 -0.9420
vn 0.0000 -0.3357 -0.9420
vn 0.2371 -0.3357 -0.9116
vn 0.8017 -0.3357 -0.4946
vn 0.0963 -0.3357 0.9370
vn -0.0668 -0.3357 0.9396
vn 0.0668 -0.3357 0.9396
vn 0.0000 0.4345 0.9007
vn -0.1088 0.7072 0.6986
vn 0.0000 0.7734 0.6339
vn 0.0667 0.4335 0.8987
vn 0.6718 0.0000 0.7407
vn 0.6737 0.0025 0.7390
vn 0.6874 0.2158 0.6934
vn 0.0000 -0.4365 0.8997
vn -0.6874 0.2085 0.6957
vn -0.6748 0.0000 0.7380
vn -0.6716 0.0031 0.7409
# 28 vertex normals

vt 0.8463 0.4531 0.0000
vt 0.8294 0.4996 0.0000
vt 0.6397 0.5622 0.0000
vt 0.5653 0.4607 0.0000
vt 0.4293 0.5622 0.0000
vt 0.4293 0.4703 0.0000
vt 0.2175 0.5622 0.0000
vt 0.2963 0.4609 0.0000
vt 0.0232 0.5117 0.0000
vt 0.0100 0.4903 0.0000
vt 0.5130 0.1211 0.0000
vt 0.2615 0.1204 0.0000
vt 0.2615 0.0100 0.0000
vt 0.5130 0.0487 0.0000
vt 0.0100 0.1213 0.0000
vt 0.0100 0.0487 0.0000
vt 0.6405 0.3027 0.0000
vt 0.9900 0.3027 0.0000
vt 0.9238 0.4314 0.0000
vt 0.6428 0.4314 0.0000
vt 0.7859 0.0100 0.0000
vt 0.9165 0.0100 0.0000
vt 0.8799 0.1387 0.0000
vt 0.8335 0.1387 0.0000
vt 0.5348 0.0100 0.0000
vt 0.7641 0.0100 0.0000
vt 0.7567 0.1466 0.0000
vt 0.5570 0.1466 0.0000
vt 0.2615 0.2809 0.0000
vt 0.0192 0.2809 0.0000
vt 0.5058 0.2809 0.0000
vt 0.0159 0.6775 0.0000
vt 0.2336 0.6775 0.0000
vt 0.2043 0.8062 0.0000
vt 0.0100 0.8062 0.0000
vt 0.6635 0.1684 0.0000
vt 0.6635 0.2677 0.0000
vt 0.5348 0.2295 0.0000
vt 0.5348 0.2081 0.0000
vt 0.0100 0.3027 0.0000
vt 0.3730 0.3027 0.0000
vt 0.3738 0.4314 0.0000
vt 0.0874 0.4314 0.0000
vt 0.5068 0.3027 0.0000
vt 0.5068 0.4314 0.0000
vt 0.4785 0.6529 0.0000
vt 0.2610 0.6543 0.0000
vt 0.2600 0.5840 0.0000
vt 0.5125 0.6145 0.0000
vt 0.0435 0.6558 0.0000
vt 0.0100 0.6178 0.0000
vt 0.7371 0.6377 0.0000
vt 0.6998 0.6305 0.0000
vt 0.6995 0.5840 0.0000
vt 0.7707 0.5977 0.0000
vt 0.5667 0.6404 0.0000
vt 0.5342 0.5963 0.0000
vt 0.2877 0.6775 0.0000
vt 0.4996 0.6775 0.0000
vt 0.4996 0.7178 0.0000
vt 0.2554 0.7178 0.0000
vt 0.7100 0.6775 0.0000
vt 0.7420 0.7178 0.0000
vt 0.4623 0.7925 0.0000
vt 0.3257 0.7860 0.0000
vt 0.3246 0.7395 0.0000
vt 0.4941 0.7476 0.0000
vt 0.2895 0.7945 0.0000
vt 0.2554 0.7555 0.0000
# 69 texture coords

g Front
usemtl texture_please
s 2
f 73/35/39 74/36/39 75/37/39 
f 75/37/39 76/38/39 73/35/39 
f 76/38/39 75/37/39 77/39/39 
f 77/39/39 78/40/39 76/38/39 
f 78/40/39 77/39/39 79/41/39 
f 79/41/39 80/42/39 78/40/39 
f 80/42/39 79/41/39 81/43/39 
f 81/43/39 82/44/39 80/42/39 
s 32
f 83/45/40 84/46/41 85/47/42 
f 85/47/42 86/48/43 83/45/40 
f 84/46/41 87/49/44 88/50/45 
f 88/50/45 85/47/42 84/46/41 
s off
f 89/51/46 90/52/46 73/53/46 
f 73/53/46 76/54/46 89/51/46 
f 90/55/47 91/56/47 74/57/47 
f 74/57/47 73/58/47 90/55/47 
f 91/59/48 92/60/48 75/61/48 
f 75/61/48 74/62/48 91/59/48 
f 87/49/49 84/46/49 93/63/49 
f 93/63/50 94/64/50 87/49/50 
f 84/46/50 83/45/50 95/65/50 
f 95/65/50 93/63/50 84/46/50 
f 96/66/51 97/67/51 81/68/51 
f 81/68/51 79/69/51 96/66/51 
f 97/70/52 98/71/52 82/72/52 
f 82/72/52 81/73/52 97/70/52 
f 98/74/53 99/75/53 80/76/53 
f 80/76/53 82/77/53 98/74/53 
f 99/75/54 100/78/54 78/79/54 
f 78/79/54 80/76/54 99/75/54 
f 100/78/55 89/51/55 76/54/55 
f 76/54/55 78/79/55 100/78/55 
f 101/80/56 102/81/56 85/82/56 
f 85/82/57 88/83/57 101/80/57 
f 102/81/58 103/84/58 86/85/58 
f 86/85/59 85/82/59 102/81/59 
f 103/86/60 96/87/60 83/88/60 
f 83/88/61 86/89/61 103/86/61 
f 96/87/62 79/90/62 95/91/62 
f 95/91/62 83/88/62 96/87/62 
f 79/92/63 77/93/63 93/94/63 
f 93/94/63 95/95/63 79/92/63 
f 77/93/63 75/96/63 94/97/63 
f 94/97/63 93/94/63 77/93/63 
f 75/98/64 92/99/64 87/100/64 
f 87/100/64 94/101/64 75/98/64 
f 92/99/65 101/102/65 88/103/65 
f 88/103/66 87/100/66 92/99/66 
# 48 faces

