# 3ds Max Wavefront OBJ Exporter v0.97b - (c)2007 guruware
# File Created: 08.05.2018 04:05:25

mtllib skybox2.mtl

#
# object Top
#

v  10.0000 20.0000 -10.0000
v  -10.0000 20.0000 -10.0000
v  10.0000 20.0000 10.0000
v  -10.0000 20.0000 10.0000
# 4 vertices

vn 0.0000 1.0000 -0.0000
# 1 vertex normals

vt 0.0000 1.0000 0.0000
vt 0.0000 0.0000 0.0000
vt 1.0000 1.0000 0.0000
vt 1.0000 0.0000 0.0000
# 4 texture coords

g Top
usemtl Top
s 1
f 1/1/1 2/2/1 3/3/1 
f 4/4/1 3/3/1 2/2/1 
# 2 faces

#
# object Front
#

v  -10.0000 20.0000 10.0000
v  -10.0000 0.0000 10.0000
v  10.0000 20.0000 10.0000
v  10.0000 0.0000 10.0000
# 4 vertices

vn 0.0000 -0.0000 1.0000
# 1 vertex normals

vt 0.0000 1.0000 0.0000
vt 0.0000 0.0000 0.0000
vt 1.0000 1.0000 0.0000
vt 1.0000 0.0000 0.0000
# 4 texture coords

g Front
usemtl Front
s 1
f 5/5/2 6/6/2 7/7/2 
f 8/8/2 7/7/2 6/6/2 
# 2 faces

#
# object Right
#

v  10.0000 20.0000 10.0000
v  10.0000 0.0000 10.0000
v  10.0000 20.0000 -10.0000
v  10.0000 0.0000 -10.0000
# 4 vertices

vn 1.0000 -0.0000 -0.0000
# 1 vertex normals

vt 0.0000 1.0000 0.0000
vt 0.0000 0.0000 0.0000
vt 1.0000 1.0000 0.0000
vt 1.0000 0.0000 0.0000
# 4 texture coords

g Right
usemtl Right
s 1
f 9/9/3 10/10/3 11/11/3 
f 12/12/3 11/11/3 10/10/3 
# 2 faces

#
# object Left
#

v  -10.0000 20.0000 -10.0000
v  -10.0000 0.0000 -10.0000
v  -10.0000 20.0000 10.0000
v  -10.0000 0.0000 10.0000
# 4 vertices

vn -1.0000 -0.0000 -0.0000
# 1 vertex normals

vt 0.0000 1.0000 0.0000
vt 0.0000 0.0000 0.0000
vt 1.0000 1.0000 0.0000
vt 1.0000 0.0000 0.0000
# 4 texture coords

g Left
usemtl Left
s 1
f 13/13/4 14/14/4 15/15/4 
f 16/16/4 15/15/4 14/14/4 
# 2 faces

#
# object Back
#

v  10.0000 20.0000 -10.0000
v  10.0000 0.0000 -10.0000
v  -10.0000 20.0000 -10.0000
v  -10.0000 0.0000 -10.0000
# 4 vertices

vn -0.0000 -0.0000 -1.0000
# 1 vertex normals

vt 0.0000 1.0000 0.0000
vt 0.0000 0.0000 0.0000
vt 1.0000 1.0000 0.0000
vt 1.0000 0.0000 0.0000
# 4 texture coords

g Back
usemtl Back
s 1
f 17/17/5 18/18/5 19/19/5 
f 20/20/5 19/19/5 18/18/5 
# 2 faces

#
# object Bottom
#

v  -10.0000 0.0000 10.0000
v  10.0000 0.0000 10.0000
v  -10.0000 0.0000 -10.0000
v  10.0000 0.0000 -10.0000
# 4 vertices

vn 0.0000 1.0000 -0.0000
# 1 vertex normals

vt 0.0000 1.0000 0.0000
vt 0.0000 0.0000 0.0000
vt 1.0000 1.0000 0.0000
vt 1.0000 0.0000 0.0000
# 4 texture coords

g Bottom
usemtl Bottom
s 1
f 21/21/6 22/22/6 23/23/6 
f 24/24/6 23/23/6 22/22/6 
# 2 faces

