# 3ds Max Wavefront OBJ Exporter v0.97b - (c)2007 guruware
# File Created: 08.09.2018 10:54:06

mtllib table.mtl

#
# object legs
#

v  -30.0000 0.0000 7.5000
v  -30.0000 0.0000 5.2209
v  -27.4111 0.0000 5.2209
v  -27.4111 0.0000 7.5000
v  -27.4111 20.0000 7.5000
v  -27.4111 20.0000 5.2209
v  27.4525 20.0000 5.2209
v  27.4525 20.0000 7.5000
v  27.4525 0.0000 7.5000
v  27.4525 0.0000 5.2209
v  30.0000 0.0000 5.2209
v  30.0000 0.0000 7.5000
v  -30.0000 20.0000 5.2209
v  -30.0000 20.0000 -4.9340
v  -27.4111 20.0000 -4.9340
v  27.4525 20.0000 -4.9340
v  30.0000 20.0000 -4.9340
v  30.0000 20.0000 5.2209
v  -30.0000 0.0000 -4.9340
v  -30.0000 0.0000 -7.5000
v  -27.4111 0.0000 -7.5000
v  -27.4111 0.0000 -4.9340
v  -27.4111 20.0000 -7.5000
v  27.4525 20.0000 -7.5000
v  27.4525 0.0000 -4.9340
v  27.4525 0.0000 -7.5000
v  30.0000 0.0000 -7.5000
v  30.0000 0.0000 -4.9340
v  -30.0000 18.3381 5.2209
v  -30.0000 18.3381 6.3798
v  -30.0000 18.3381 7.5000
v  -30.0000 20.0000 7.5000
v  -27.4111 18.3381 5.2209
v  -27.4111 18.3381 7.5000
v  -27.4111 18.3381 6.3798
v  27.4525 18.3381 5.2209
v  27.4525 18.3381 6.3798
v  27.4525 18.3381 7.5000
v  30.0000 18.3381 5.2209
v  30.0000 20.0000 7.5000
v  30.0000 18.3381 7.5000
v  30.0000 18.3381 6.3798
v  -30.0000 1.9513 -4.9340
v  -27.4111 1.9513 -4.9340
v  -30.0000 20.0000 -7.5000
v  -30.0000 1.9513 -7.5000
v  -27.4111 1.9513 -7.5000
v  27.4525 1.8768 -4.9340
v  30.0000 1.8768 -4.9340
v  27.4525 1.8768 -7.5000
v  30.0000 20.0000 -7.5000
v  30.0000 1.8768 -7.5000
v  -30.0000 1.9513 7.5000
v  -30.0000 1.9513 5.2209
v  -27.4111 0.0000 0.1435
v  -30.0000 0.0000 0.1435
v  -30.0000 1.9513 0.1435
v  -27.4111 1.9513 0.1435
v  -27.4111 1.9513 5.2209
v  -27.4111 1.9513 7.5000
v  27.4525 1.8768 7.5000
v  27.4525 1.8768 5.2209
v  30.0000 0.0000 0.1435
v  27.4525 0.0000 0.1435
v  27.4525 1.8768 0.1435
v  30.0000 1.8768 0.1435
v  30.0000 1.8768 5.2209
v  30.0000 1.8768 7.5000
v  -30.0000 7.8681 5.2209
v  -30.0000 7.8681 6.3798
v  -27.4111 7.8681 5.2209
v  0.0207 7.8681 7.5000
v  0.0207 7.8681 6.3798
v  0.0207 18.3381 6.3798
v  0.0207 18.3381 7.5000
v  -30.0000 7.8681 7.5000
v  -27.4111 7.8681 7.5000
v  27.4525 7.8681 5.2209
v  27.4525 7.8681 6.3798
v  30.0000 7.8681 5.2209
v  30.0000 7.8681 7.5000
v  30.0000 7.8681 6.3798
v  27.4525 7.8681 7.5000
v  -27.4111 7.8681 6.3798
# 84 vertices

vn 0.0000 -1.0000 -0.0000
vn -1.0000 0.0000 -0.0000
vn 0.0000 0.0000 -1.0000
vn 1.0000 0.0000 -0.0000
vn 0.0000 0.0000 1.0000
vn 1.0000 0.0000 0.0000
vn 0.0000 1.0000 -0.0000
vn 1.0000 -0.0000 -0.0000
vn 0.0000 -0.0000 1.0000
vn -1.0000 -0.0000 -0.0000
vn -0.0000 1.0000 -0.0000
vn -0.0000 -0.0000 1.0000
vn -0.0000 -1.0000 -0.0000
# 13 vertex normals

vt 0.8001 0.7920 0.0000
vt 0.7723 0.7920 0.0000
vt 0.7723 0.7604 0.0000
vt 0.8001 0.7604 0.0000
vt 0.7110 0.0100 0.0000
vt 0.7110 0.0378 0.0000
vt 0.0411 0.0378 0.0000
vt 0.0411 0.0100 0.0000
vt 0.8981 0.7920 0.0000
vt 0.8703 0.7920 0.0000
vt 0.8703 0.7609 0.0000
vt 0.8981 0.7609 0.0000
vt 0.7426 0.0378 0.0000
vt 0.7426 0.1618 0.0000
vt 0.7110 0.1618 0.0000
vt 0.0411 0.1618 0.0000
vt 0.0100 0.1618 0.0000
vt 0.0100 0.0378 0.0000
vt 0.7416 0.9145 0.0000
vt 0.7103 0.9145 0.0000
vt 0.7103 0.8829 0.0000
vt 0.7416 0.8829 0.0000
vt 0.7110 0.1932 0.0000
vt 0.0411 0.1932 0.0000
vt 0.8431 0.9145 0.0000
vt 0.8118 0.9145 0.0000
vt 0.8118 0.8834 0.0000
vt 0.8431 0.8834 0.0000
vt 0.9217 0.6402 0.0000
vt 0.9014 0.6402 0.0000
vt 0.9014 0.6261 0.0000
vt 0.9014 0.6124 0.0000
vt 0.9217 0.6124 0.0000
vt 0.3353 0.4619 0.0000
vt 0.3150 0.4619 0.0000
vt 0.3150 0.4303 0.0000
vt 0.3353 0.4303 0.0000
vt 0.9217 0.9508 0.0000
vt 0.9014 0.9508 0.0000
vt 0.9014 0.9371 0.0000
vt 0.9014 0.9230 0.0000
vt 0.9217 0.9230 0.0000
vt 0.3766 0.2177 0.0000
vt 0.3766 0.2380 0.0000
vt 0.3449 0.2380 0.0000
vt 0.3449 0.2177 0.0000
vt 0.6448 0.8923 0.0000
vt 0.6245 0.8923 0.0000
vt 0.6245 0.8781 0.0000
vt 0.6245 0.8645 0.0000
vt 0.6448 0.8645 0.0000
vt 0.6224 0.4011 0.0000
vt 0.6021 0.4011 0.0000
vt 0.6021 0.3700 0.0000
vt 0.6224 0.3700 0.0000
vt 0.9217 0.8283 0.0000
vt 0.9014 0.8283 0.0000
vt 0.9014 0.8146 0.0000
vt 0.9014 0.8004 0.0000
vt 0.9217 0.8004 0.0000
vt 0.0411 0.4864 0.0000
vt 0.0411 0.5067 0.0000
vt 0.0100 0.5067 0.0000
vt 0.0100 0.4864 0.0000
vt 0.3353 0.4221 0.0000
vt 0.1150 0.4221 0.0000
vt 0.1150 0.3905 0.0000
vt 0.3353 0.3905 0.0000
vt 0.6448 0.7057 0.0000
vt 0.4244 0.7057 0.0000
vt 0.4244 0.6744 0.0000
vt 0.6448 0.6744 0.0000
vt 0.3760 0.7306 0.0000
vt 0.1557 0.7306 0.0000
vt 0.1557 0.6990 0.0000
vt 0.3760 0.6990 0.0000
vt 0.6448 0.5177 0.0000
vt 0.4244 0.5177 0.0000
vt 0.4244 0.4864 0.0000
vt 0.6448 0.4864 0.0000
vt 0.9818 0.2488 0.0000
vt 0.7605 0.2488 0.0000
vt 0.7605 0.2177 0.0000
vt 0.9818 0.2177 0.0000
vt 0.6448 0.8318 0.0000
vt 0.4235 0.8318 0.0000
vt 0.4235 0.8004 0.0000
vt 0.6448 0.8004 0.0000
vt 0.3760 0.6908 0.0000
vt 0.1548 0.6908 0.0000
vt 0.1548 0.6597 0.0000
vt 0.3760 0.6597 0.0000
vt 0.9217 0.5177 0.0000
vt 0.7004 0.5177 0.0000
vt 0.7004 0.4864 0.0000
vt 0.9217 0.4864 0.0000
vt 0.6775 0.6402 0.0000
vt 0.6775 0.6124 0.0000
vt 0.7013 0.6124 0.0000
vt 0.7013 0.6402 0.0000
vt 0.7804 0.5559 0.0000
vt 0.8121 0.5559 0.0000
vt 0.8121 0.5797 0.0000
vt 0.7804 0.5797 0.0000
vt 0.6775 0.9508 0.0000
vt 0.6775 0.9230 0.0000
vt 0.7013 0.9230 0.0000
vt 0.7013 0.9508 0.0000
vt 0.3766 0.4619 0.0000
vt 0.3449 0.4619 0.0000
vt 0.3449 0.4380 0.0000
vt 0.3766 0.4380 0.0000
vt 0.4006 0.8923 0.0000
vt 0.4006 0.8645 0.0000
vt 0.4235 0.8645 0.0000
vt 0.4235 0.8923 0.0000
vt 0.4334 0.6432 0.0000
vt 0.4645 0.6432 0.0000
vt 0.4645 0.6662 0.0000
vt 0.4334 0.6662 0.0000
vt 0.6775 0.8283 0.0000
vt 0.6775 0.8004 0.0000
vt 0.7004 0.8004 0.0000
vt 0.7004 0.8283 0.0000
vt 0.0411 0.7306 0.0000
vt 0.0100 0.7306 0.0000
vt 0.0100 0.7077 0.0000
vt 0.0411 0.7077 0.0000
vt 0.8202 0.5559 0.0000
vt 0.8518 0.5559 0.0000
vt 0.8518 0.5797 0.0000
vt 0.8202 0.5797 0.0000
vt 0.4006 0.7057 0.0000
vt 0.4006 0.6744 0.0000
vt 0.1318 0.7306 0.0000
vt 0.1318 0.6990 0.0000
vt 0.4006 0.5177 0.0000
vt 0.4006 0.4864 0.0000
vt 0.8600 0.5568 0.0000
vt 0.8911 0.5568 0.0000
vt 0.8911 0.5797 0.0000
vt 0.8600 0.5797 0.0000
vt 0.4006 0.8318 0.0000
vt 0.4006 0.8004 0.0000
vt 0.1318 0.6908 0.0000
vt 0.1318 0.6597 0.0000
vt 0.6775 0.5177 0.0000
vt 0.6775 0.4864 0.0000
vt 0.7103 0.7920 0.0000
vt 0.7103 0.7604 0.0000
vt 0.7013 0.7022 0.0000
vt 0.6775 0.7022 0.0000
vt 0.4334 0.7922 0.0000
vt 0.4334 0.7606 0.0000
vt 0.4954 0.7606 0.0000
vt 0.4954 0.7922 0.0000
vt 0.6775 0.8610 0.0000
vt 0.7013 0.8610 0.0000
vt 0.8036 0.8829 0.0000
vt 0.8036 0.9145 0.0000
vt 0.4244 0.5797 0.0000
vt 0.4006 0.5797 0.0000
vt 0.5655 0.7606 0.0000
vt 0.5655 0.7922 0.0000
vt 0.5035 0.7922 0.0000
vt 0.5035 0.7606 0.0000
vt 0.4006 0.6124 0.0000
vt 0.4244 0.6124 0.0000
vt 0.8083 0.7920 0.0000
vt 0.8083 0.7609 0.0000
vt 0.4235 0.9543 0.0000
vt 0.4006 0.9543 0.0000
vt 0.7103 0.5797 0.0000
vt 0.7103 0.5486 0.0000
vt 0.7723 0.5486 0.0000
vt 0.7723 0.5797 0.0000
vt 0.6775 0.7384 0.0000
vt 0.7004 0.7384 0.0000
vt 0.9051 0.8834 0.0000
vt 0.9051 0.9145 0.0000
vt 0.7004 0.5797 0.0000
vt 0.6775 0.5797 0.0000
vt 0.6357 0.7611 0.0000
vt 0.6357 0.7922 0.0000
vt 0.5737 0.7922 0.0000
vt 0.5737 0.7611 0.0000
vt 0.4006 0.7384 0.0000
vt 0.4235 0.7384 0.0000
vt 0.7735 0.6402 0.0000
vt 0.7735 0.6261 0.0000
vt 0.1872 0.4619 0.0000
vt 0.1872 0.4303 0.0000
vt 0.4334 0.9543 0.0000
vt 0.4334 0.9406 0.0000
vt 0.5612 0.9406 0.0000
vt 0.8381 0.6667 0.0000
vt 0.8381 0.6804 0.0000
vt 0.7103 0.6804 0.0000
vt 0.3766 0.3658 0.0000
vt 0.3449 0.3658 0.0000
vt 0.4966 0.8923 0.0000
vt 0.4966 0.8781 0.0000
vt 0.4742 0.4011 0.0000
vt 0.4742 0.3700 0.0000
vt 0.7735 0.8283 0.0000
vt 0.7735 0.8146 0.0000
vt 0.0411 0.6345 0.0000
vt 0.0100 0.6345 0.0000
vt 0.7735 0.6124 0.0000
vt 0.1150 0.4619 0.0000
vt 0.1150 0.4303 0.0000
vt 0.7735 0.9230 0.0000
vt 0.7735 0.9371 0.0000
vt 0.7735 0.9508 0.0000
vt 0.4966 0.8645 0.0000
vt 0.4011 0.4011 0.0000
vt 0.4011 0.3700 0.0000
vt 0.7735 0.8004 0.0000
vt 0.7103 0.6886 0.0000
vt 0.8381 0.6886 0.0000
vt 0.8381 0.7022 0.0000
vt 0.5612 0.9324 0.0000
vt 0.4334 0.9324 0.0000
vt 0.4334 0.9188 0.0000
vt 0.0100 0.3658 0.0000
vt 0.0100 0.2380 0.0000
vt 0.3449 0.9457 0.0000
vt 0.3449 0.9594 0.0000
vt 0.0100 0.9594 0.0000
vt 0.0100 0.9457 0.0000
vt 0.0100 0.8830 0.0000
vt 0.0100 0.7551 0.0000
vt 0.3449 0.7551 0.0000
vt 0.3449 0.8830 0.0000
vt 0.9900 0.4082 0.0000
vt 0.9900 0.4219 0.0000
vt 0.6551 0.4219 0.0000
vt 0.6551 0.4082 0.0000
vt 0.3760 0.5067 0.0000
vt 0.3760 0.6345 0.0000
vt 0.0100 0.9212 0.0000
vt 0.0100 0.9075 0.0000
vt 0.3449 0.9075 0.0000
vt 0.3449 0.9212 0.0000
vt 0.7360 0.2177 0.0000
vt 0.7360 0.3455 0.0000
vt 0.4011 0.3455 0.0000
vt 0.4011 0.2177 0.0000
vt 0.6551 0.3837 0.0000
vt 0.6551 0.3700 0.0000
vt 0.9900 0.3700 0.0000
vt 0.9900 0.3837 0.0000
# 252 texture coords

g legs
usemtl 02___Default
s 2
f 1/1/1 2/2/1 3/3/1 
f 3/3/1 4/4/1 1/1/1 
f 5/5/1 6/6/1 7/7/1 
f 7/7/1 8/8/1 5/5/1 
f 9/9/1 10/10/1 11/11/1 
f 11/11/1 12/12/1 9/9/1 
f 13/13/1 14/14/1 15/15/1 
f 15/15/1 6/6/1 13/13/1 
f 6/6/1 15/15/1 16/16/1 
f 16/16/1 7/7/1 6/6/1 
f 7/7/1 16/16/1 17/17/1 
f 17/17/1 18/18/1 7/7/1 
f 19/19/1 20/20/1 21/21/1 
f 21/21/1 22/22/1 19/19/1 
f 15/15/1 23/23/1 24/24/1 
f 24/24/1 16/16/1 15/15/1 
f 25/25/1 26/26/1 27/27/1 
f 27/27/1 28/28/1 25/25/1 
s off
f 13/29/2 29/30/2 30/31/2 
f 13/29/2 30/31/2 31/32/2 
f 32/33/2 13/29/2 31/32/2 
f 6/34/3 33/35/3 29/36/3 
f 29/36/3 13/37/3 6/34/3 
f 5/38/4 34/39/4 35/40/4 
f 5/38/4 35/40/4 33/41/4 
f 6/42/4 5/38/4 33/41/4 
f 32/43/5 31/44/5 34/45/5 
f 34/45/5 5/46/5 32/43/5 
f 7/47/2 36/48/2 37/49/2 
f 7/47/2 37/49/2 38/50/2 
f 8/51/2 7/47/2 38/50/2 
f 18/52/3 39/53/3 36/54/3 
f 36/54/3 7/55/3 18/52/3 
f 40/56/4 41/57/4 42/58/4 
f 40/56/4 42/58/4 39/59/4 
f 18/60/4 40/56/4 39/59/4 
f 8/61/5 38/62/5 41/63/5 
f 41/63/5 40/64/5 8/61/5 
f 14/65/5 43/66/5 44/67/5 
f 44/67/5 15/68/5 14/65/5 
f 45/69/2 46/70/2 43/71/2 
f 43/71/2 14/72/2 45/69/2 
f 23/73/3 47/74/3 46/75/3 
f 46/75/3 45/76/3 23/73/3 
f 15/77/4 44/78/4 47/79/4 
f 47/79/4 23/80/4 15/77/4 
f 16/81/5 48/82/5 49/83/5 
f 49/83/5 17/84/5 16/81/5 
f 24/85/2 50/86/2 48/87/2 
f 48/87/2 16/88/2 24/85/2 
f 51/89/3 52/90/3 50/91/3 
f 50/91/3 24/92/3 51/89/3 
f 17/93/6 49/94/6 52/95/6 
f 52/95/6 51/96/6 17/93/6 
f 2/97/2 1/98/2 53/99/2 
f 53/99/2 54/100/2 2/97/2 
f 55/101/3 56/102/3 57/103/3 
f 57/103/3 58/104/3 55/101/3 
f 4/105/4 3/106/4 59/107/4 
f 59/107/4 60/108/4 4/105/4 
f 1/109/5 4/110/5 60/111/5 
f 60/111/5 53/112/5 1/109/5 
f 10/113/2 9/114/2 61/115/2 
f 61/115/2 62/116/2 10/113/2 
f 63/117/3 64/118/3 65/119/3 
f 65/119/3 66/120/3 63/117/3 
f 12/121/4 11/122/4 67/123/4 
f 67/123/4 68/124/4 12/121/4 
f 9/125/5 12/126/5 68/127/5 
f 68/127/5 61/128/5 9/125/5 
f 56/129/5 55/130/5 58/131/5 
f 58/131/5 57/132/5 56/129/5 
f 20/133/2 19/134/2 43/71/2 
f 43/71/2 46/70/2 20/133/2 
f 21/135/3 20/136/3 46/75/3 
f 46/75/3 47/74/3 21/135/3 
f 22/137/4 21/138/4 47/79/4 
f 47/79/4 44/78/4 22/137/4 
f 64/139/5 63/140/5 66/141/5 
f 66/141/5 65/142/5 64/139/5 
f 26/143/2 25/144/2 48/87/2 
f 48/87/2 50/86/2 26/143/2 
f 27/145/3 26/146/3 50/91/3 
f 50/91/3 52/90/3 27/145/3 
f 28/147/6 27/148/6 52/95/6 
f 52/95/6 49/94/6 28/147/6 
f 3/3/1 2/2/1 56/149/1 
f 56/149/1 55/150/1 3/3/1 
f 2/97/2 54/100/2 57/151/2 
f 57/151/2 56/152/2 2/97/2 
f 54/153/7 59/154/7 58/155/7 
f 58/155/7 57/156/7 54/153/7 
f 59/107/4 3/106/4 55/157/4 
f 55/157/4 58/158/4 59/107/4 
f 19/19/1 22/22/1 55/159/1 
f 55/159/1 56/160/1 19/19/1 
f 22/137/4 44/78/4 58/161/4 
f 58/161/4 55/162/4 22/137/4 
f 44/163/7 43/164/7 57/165/7 
f 57/165/7 58/166/7 44/163/7 
f 43/71/2 19/134/2 56/167/2 
f 56/167/2 57/168/2 43/71/2 
f 11/11/1 10/10/1 64/169/1 
f 64/169/1 63/170/1 11/11/1 
f 10/113/2 62/116/2 65/171/2 
f 65/171/2 64/172/2 10/113/2 
f 62/173/7 67/174/7 66/175/7 
f 66/175/7 65/176/7 62/173/7 
f 67/123/4 11/122/4 63/177/4 
f 63/177/4 66/178/4 67/123/4 
f 25/25/1 28/28/1 63/179/1 
f 63/179/1 64/180/1 25/25/1 
f 28/147/4 49/94/4 66/181/4 
f 66/181/4 63/182/4 28/147/4 
f 49/183/7 48/184/7 65/185/7 
f 65/185/7 66/186/7 49/183/7 
f 48/87/2 25/144/2 64/187/2 
f 64/187/2 65/188/2 48/87/2 
f 69/189/2 70/190/2 30/31/2 
f 30/31/2 29/30/2 69/189/2 
f 71/191/3 69/192/3 29/36/3 
f 29/36/3 33/35/3 71/191/3 
f 72/193/4 73/194/4 74/195/4 
f 74/196/4 75/197/4 72/198/4 
f 76/199/5 77/200/5 34/45/5 
f 34/45/5 31/44/5 76/199/5 
f 78/201/2 79/202/2 37/49/2 
f 37/49/2 36/48/2 78/201/2 
f 80/203/3 78/204/3 36/54/3 
f 36/54/3 39/53/3 80/203/3 
f 81/205/4 82/206/4 42/58/4 
f 42/58/8 41/57/8 81/205/8 
f 83/207/9 81/208/9 41/63/9 
f 41/63/9 38/62/9 83/207/9 
f 54/100/2 53/99/2 76/209/2 
f 54/100/2 76/209/2 70/190/2 
f 69/189/2 54/100/2 70/190/2 
f 59/210/3 54/211/3 69/192/3 
f 69/192/3 71/191/3 59/210/3 
f 60/108/8 59/107/8 71/212/8 
f 60/108/8 71/212/8 84/213/8 
f 77/214/8 60/108/8 84/213/8 
f 53/112/5 60/111/5 77/200/5 
f 77/200/5 76/199/5 53/112/5 
f 62/116/2 61/115/2 83/215/2 
f 62/116/2 83/215/2 79/202/2 
f 78/201/2 62/116/2 79/202/2 
f 67/216/3 62/217/3 78/204/3 
f 78/204/3 80/203/3 67/216/3 
f 68/124/4 67/123/4 80/218/4 
f 68/124/8 80/218/8 82/206/8 
f 81/205/4 68/124/4 82/206/4 
f 61/128/5 68/127/5 81/208/5 
f 81/208/5 83/207/5 61/128/5 
f 76/209/2 31/32/2 30/31/2 
f 30/31/2 70/190/2 76/209/2 
f 71/212/4 33/41/4 35/40/4 
f 35/40/4 84/213/4 71/212/4 
f 72/219/10 75/220/10 74/221/10 
f 74/222/10 73/223/10 72/224/10 
f 80/218/8 39/59/8 42/58/8 
f 42/58/4 82/206/4 80/218/4 
f 34/45/5 77/200/5 72/225/5 
f 72/225/5 75/226/5 34/45/5 
f 77/227/1 84/228/1 73/229/1 
f 73/229/1 72/230/1 77/227/1 
f 84/231/3 35/232/3 74/233/3 
f 74/233/3 73/234/3 84/231/3 
f 35/235/11 34/236/11 75/237/11 
f 75/237/11 74/238/11 35/235/11 
f 83/207/12 38/62/12 75/239/12 
f 75/239/5 72/240/5 83/207/5 
f 38/241/7 37/242/7 74/243/7 
f 74/243/7 75/244/7 38/241/7 
f 37/245/3 79/246/3 73/247/3 
f 73/247/3 74/248/3 37/245/3 
f 79/249/13 83/250/13 72/251/13 
f 72/251/13 73/252/13 79/249/13 
# 178 faces

#
# object tabletop
#

v  -30.0000 24.0000 7.5000
v  -27.4111 24.0000 7.5000
v  -27.4111 24.0000 5.2209
v  -30.0000 24.0000 5.2209
v  27.4525 24.0000 7.5000
v  27.4525 24.0000 5.2209
v  30.0000 24.0000 7.5000
v  30.0000 24.0000 5.2209
v  -27.4111 24.0000 -4.9340
v  -30.0000 24.0000 -4.9340
v  -26.4336 23.9000 4.2433
v  26.4749 23.9000 4.2433
v  26.4749 23.9000 -3.9564
v  -26.4336 23.9000 -3.9564
v  30.0000 24.0000 -4.9340
v  27.4525 24.0000 -4.9340
v  -27.4111 24.0000 -7.5000
v  -30.0000 24.0000 -7.5000
v  27.4525 24.0000 -7.5000
v  30.0000 24.0000 -7.5000
v  -30.0000 20.0000 7.5000
v  -27.4111 20.0000 7.5000
v  27.4525 20.0000 7.5000
v  30.0000 20.0000 7.5000
v  30.0000 20.0000 5.2209
v  30.0000 20.0000 -4.9340
v  30.0000 20.0000 -7.5000
v  27.4525 20.0000 -7.5000
v  -27.4111 20.0000 -7.5000
v  -30.0000 20.0000 -7.5000
v  -30.0000 20.0000 -4.9340
v  -30.0000 20.0000 5.2209
# 32 vertices

vn 0.0000 1.0000 -0.0000
vn 0.0000 0.0000 1.0000
vn 1.0000 0.0000 -0.0000
vn 1.0000 0.0000 0.0000
vn 0.0000 0.0000 -1.0000
vn -1.0000 0.0000 -0.0000
vn 0.0000 0.9948 -0.1018
vn -0.1018 0.9948 -0.0000
vn 0.0000 0.9948 0.1018
vn 0.1018 0.9948 -0.0000
# 10 vertex normals

vt 0.9900 0.2550 0.0000
vt 0.9477 0.2550 0.0000
vt 0.9477 0.2178 0.0000
vt 0.9900 0.2178 0.0000
vt 0.0516 0.2550 0.0000
vt 0.0516 0.2178 0.0000
vt 0.0100 0.2550 0.0000
vt 0.0100 0.2178 0.0000
vt 0.9477 0.0519 0.0000
vt 0.9900 0.0519 0.0000
vt 0.9317 0.2018 0.0000
vt 0.0676 0.2018 0.0000
vt 0.0676 0.0679 0.0000
vt 0.9317 0.0679 0.0000
vt 0.0100 0.0519 0.0000
vt 0.0516 0.0519 0.0000
vt 0.9477 0.0100 0.0000
vt 0.9900 0.0100 0.0000
vt 0.0516 0.0100 0.0000
vt 0.0100 0.0100 0.0000
vt 0.9900 0.4236 0.0000
vt 0.9477 0.4236 0.0000
vt 0.9477 0.3583 0.0000
vt 0.9900 0.3583 0.0000
vt 0.0516 0.4236 0.0000
vt 0.0516 0.3583 0.0000
vt 0.0100 0.4236 0.0000
vt 0.0100 0.3583 0.0000
vt 0.2550 0.5922 0.0000
vt 0.2178 0.5922 0.0000
vt 0.2178 0.5269 0.0000
vt 0.2550 0.5269 0.0000
vt 0.0519 0.5922 0.0000
vt 0.0519 0.5269 0.0000
vt 0.0100 0.5922 0.0000
vt 0.0100 0.5269 0.0000
vt 0.9900 0.3393 0.0000
vt 0.9484 0.3393 0.0000
vt 0.9484 0.2740 0.0000
vt 0.9900 0.2740 0.0000
vt 0.0523 0.3393 0.0000
vt 0.0523 0.2740 0.0000
vt 0.0100 0.3393 0.0000
vt 0.0100 0.2740 0.0000
vt 0.2550 0.5079 0.0000
vt 0.2131 0.5079 0.0000
vt 0.2131 0.4426 0.0000
vt 0.2550 0.4426 0.0000
vt 0.0472 0.5079 0.0000
vt 0.0472 0.4426 0.0000
vt 0.0100 0.5079 0.0000
vt 0.0100 0.4426 0.0000
# 52 texture coords

g tabletop
usemtl 01___Default
s 4
f 85/253/14 86/254/14 87/255/14 
f 87/255/14 88/256/14 85/253/14 
f 86/254/14 89/257/14 90/258/14 
f 90/258/14 87/255/14 86/254/14 
f 89/257/14 91/259/14 92/260/14 
f 92/260/14 90/258/14 89/257/14 
f 88/256/14 87/255/14 93/261/14 
f 93/261/14 94/262/14 88/256/14 
f 95/263/14 96/264/14 97/265/14 
f 97/265/14 98/266/14 95/263/14 
f 90/258/14 92/260/14 99/267/14 
f 99/267/14 100/268/14 90/258/14 
f 94/262/14 93/261/14 101/269/14 
f 101/269/14 102/270/14 94/262/14 
f 93/261/14 100/268/14 103/271/14 
f 103/271/14 101/269/14 93/261/14 
f 100/268/14 99/267/14 104/272/14 
f 104/272/14 103/271/14 100/268/14 
s 8
f 105/273/15 106/274/15 86/275/15 
f 86/275/15 85/276/15 105/273/15 
f 106/274/15 107/277/15 89/278/15 
f 89/278/15 86/275/15 106/274/15 
f 107/277/15 108/279/15 91/280/15 
f 91/280/15 89/278/15 107/277/15 
s 16
f 108/281/16 109/282/16 92/283/16 
f 92/283/16 91/284/16 108/281/16 
f 109/282/16 110/285/17 99/286/17 
f 99/286/17 92/283/16 109/282/16 
f 110/285/17 111/287/17 104/288/17 
f 104/288/17 99/286/17 110/285/17 
s 32
f 111/289/18 112/290/18 103/291/18 
f 103/291/18 104/292/18 111/289/18 
f 112/290/18 113/293/18 101/294/18 
f 101/294/18 103/291/18 112/290/18 
f 113/293/18 114/295/18 102/296/18 
f 102/296/18 101/294/18 113/293/18 
s 64
f 114/297/19 115/298/19 94/299/19 
f 94/299/19 102/300/19 114/297/19 
f 115/298/19 116/301/19 88/302/19 
f 88/302/19 94/299/19 115/298/19 
f 116/301/19 105/303/19 85/304/19 
f 85/304/19 88/302/19 116/301/19 
s off
f 87/255/20 90/258/20 96/264/20 
f 96/264/20 95/263/20 87/255/20 
f 90/258/21 100/268/21 97/265/21 
f 97/265/21 96/264/21 90/258/21 
f 100/268/22 93/261/22 98/266/22 
f 98/266/22 97/265/22 100/268/22 
f 93/261/23 87/255/23 95/263/23 
f 95/263/23 98/266/23 93/261/23 
# 50 faces

